<svg xmlns="http://www.w3.org/2000/svg" width="28" height="28.031" viewBox="0 0 28 28.031">
  <metadata><?xpacket begin="﻿" id="W5M0MpCehiHzreSzNTczkc9d"?>
<x:xmpmeta xmlns:x="adobe:ns:meta/" x:xmptk="Adobe XMP Core 5.6-c138 79.159824, 2016/09/14-01:09:01        ">
   <rdf:RDF xmlns:rdf="http://www.w3.org/1999/02/22-rdf-syntax-ns#">
      <rdf:Description rdf:about=""/>
   </rdf:RDF>
</x:xmpmeta>
                                                                                                    
                                                                                                    
                                                                                                    
                                                                                                    
                                                                                                    
                                                                                                    
                                                                                                    
                                                                                                    
                                                                                                    
                                                                                                    
                                                                                                    
                                                                                                    
                                                                                                    
                                                                                                    
                                                                                                    
                                                                                                    
                                                                                                    
                                                                                                    
                                                                                                    
                                                                                                    
                           
<?xpacket end="w"?></metadata>
<defs>
    <style>
      .cls-1 {
        fill: #fff;
        fill-rule: evenodd;
      }
    </style>
  </defs>
  <path id="Фигура_3" data-name="Фигура 3" class="cls-1" d="M48,70.433a0.641,0.641,0,0,0-.228-0.438,8.717,8.717,0,0,1-2.689-4.387c-0.566-2.937,1.165-7.709,1.183-7.756a0.641,0.641,0,0,0-1.16-.536L37.662,70.528,34.538,67.4a0.641,0.641,0,0,0-1.081.579,2.781,2.781,0,0,1-.334,2.1l-0.014.015-0.014.014a1.96,1.96,0,0,1-1.366.4,4.332,4.332,0,0,1-.736-0.062,0.641,0.641,0,0,0-.579,1.082l3.123,3.125L20.329,82.1a0.641,0.641,0,0,0,.536,1.16,22.641,22.641,0,0,1,6.431-1.3,7.042,7.042,0,0,1,1.322.113A8.763,8.763,0,0,1,33,84.769a0.64,0.64,0,0,0,.438.227,0.538,0.538,0,0,0,.054,0,0.644,0.644,0,0,0,.416-0.153c0.033-.028,3.312-2.8,6.463-2.835h0.111a8.205,8.205,0,0,1,5.593,2,0.639,0.639,0,0,0,.453.2,0.65,0.65,0,0,0,.458-0.184l0.032-.032a0.643,0.643,0,0,0-.011-0.91,8.235,8.235,0,0,1-2-5.708c0.035-3.152,2.806-6.433,2.834-6.466A0.64,0.64,0,0,0,48,70.433Z" transform="translate(-20 -56.969)"/>
</svg>
